<?xml version="1.0" encoding="UTF-8"?>
<svg width="240px" height="240px" viewBox="0 0 240 240" version="1.1" xmlns="http://www.w3.org/2000/svg" xmlns:xlink="http://www.w3.org/1999/xlink">
    <!-- Generator: Sketch 53 (72520) - https://sketchapp.com -->
    <title>Artboard</title>
    <desc>Created with Sketch.</desc>
    <g id="Artboard" stroke="none" stroke-width="1" fill="none" fill-rule="evenodd">
        <path d="M168.423453,143.813861 C168.423453,148.030188 175.941891,149.374041 178.789352,147.421354 C181.636813,145.468667 182.239569,138.772675 180.284791,135.67978 C178.330013,132.586885 172.949701,132.619632 170.751663,135.137064 C169.648642,136.734873 168.423453,140.976139 168.423453,143.813861 Z" id="Path-7" stroke="#000000" stroke-width="3" fill="#FFFFFF" transform="translate(174.923453, 140.800196) scale(-1, 1) rotate(130.000000) translate(-174.923453, -140.800196) "></path>
        <path d="M49,189.626273 C49,194.90293 51.888301,197.602508 56.22685,197.602508 C60.5653991,197.602508 64,190.602508 67,185.102508 C76.3861211,172.851756 49,177.815664 49,189.626273 Z" id="Path-7" stroke="#000000" stroke-width="3" fill="#FFFFFF"></path>
        <path d="M123.215822,165.847691 C123.215822,170.503565 124.128577,171.967474 130.00959,171.356295 C139.291758,169.507196 136.968824,165.306749 141.011625,160.650875 C150.397746,149.841388 123.215822,155.426565 123.215822,165.847691 Z" id="Path-7" stroke="#000000" stroke-width="3" fill="#FFFFFF" transform="translate(133.099319, 163.141945) scale(-1, 1) rotate(-70.000000) translate(-133.099319, -163.141945) "></path>
        <g id="Group-4" transform="translate(103.118104, 125.222843) scale(-1, 1) rotate(20.000000) translate(-103.118104, -125.222843) translate(16.118104, 83.222843)" stroke-width="3">
            <path d="M159.371978,14.5327268 C147.707588,7.3213389 50.9534317,-8.54181667 7.93002146,5.81318622 C-13.1479933,12.8459844 10.9771433,82.8357944 42.9719229,82.8357944 C74.9667024,82.8357944 160.286115,85.7423079 167.294495,76.7805579 C174.302875,67.8188079 178.568846,26.4009903 159.371978,14.5327268 Z" id="Path" stroke="#000000" fill="#F8DC56"></path>
            <path d="M63.1185398,19.4923134 C105.723168,19.4923134 82.8729877,19.6755161 115.254005,23.0995677 C139.015724,25.6121926 148.110291,27.0647855 150.991864,45.7448737 C151.280907,47.6186199 151.741646,56.3371355 150.297295,59.3409197 C142.543151,75.4670445 112.927985,71.5684578 96.5823554,72.5073329 C59.7189023,74.6247296 39.4818132,80.7410207 30.6151218,51.0199161 C29.3908978,46.9163234 28.2423689,42.7158953 28.3151129,38.4969886 C28.4258034,32.0773177 50.0724884,31.151452 52.6586757,31.0352505 C69.3360065,30.2859118 118.860394,26.960062 129.111738,43.1285452 C130.839133,45.8530029 130.502424,53.3400808 130.395129,55.566702 C130.313841,57.2536275 128.894629,58.0161059 126.756453,58.4835808 C117.691869,60.465394 108.529942,62.1790078 99.3101611,63.6295407 C85.0343153,65.8755359 70.5379928,66.8770183 56.7780227,62.5140369 C52.1995271,61.0622974 44.9403833,51.6177688 48.1644055,47.4171662 C52.0151607,42.3999886 95.7443408,41.1169855 102.573914,42.5293713 C114.170112,44.9275157 109.495057,51.0814588 99.793235,53.0351441 C91.6247667,54.6800534 82.4156723,54.3086295 74.1409278,55.566702" id="Path-3" stroke-opacity="0.716974432" stroke="#FFF3CF"></path>
        </g>
        <path d="M24.5,125.222843 C33.5,103.722843 52.5,80 55,79 C76.5,62.5 126.245191,37.6112159 170.5,34.1112159 C184,32.1112159 195.5,65 195.5,75 C194.285548,83.3112317 183.501161,129.031703 175,132 C185.5,112.51314 185.5,75 166.379968,65.1256443 C135.779222,61.3042919 28.5,125.349483 24.5,125.222843 Z" id="Path-2" stroke="#000000" stroke-width="3" fill="#F4AE00"></path>
        <g id="Group" transform="translate(121.000000, 84.000000)" stroke="#000000" stroke-width="3">
            <path d="M0,15.4801492 C2.66666667,9.63956952 6.66666667,7.21927966 12,8.21927966" id="Path-8"></path>
            <path d="M25,4.26086957 C28.3333333,-0.405797101 32.5,-1.23913043 37.5,1.76086957" id="Path-9"></path>
            <path d="M13.2202405,10.4044921 C15.4935738,19.9266989 21.6328193,11.3463661 21.9073376,12.4279069 C23.2500825,17.7180217 27.8855791,20.1521892 32.8913714,16.5201039" id="Path-6" transform="translate(23.055806, 14.326979) rotate(-40.000000) translate(-23.055806, -14.326979) "></path>
        </g>
    </g>
</svg>